<svg width="1481" height="463" viewBox="0 0 1481 463" fill="none" xmlns="http://www.w3.org/2000/svg">
<g clip-path="url(#clip0_1864_62)">
<path d="M798.553 287.765C798.553 288.704 798.553 289.173 798.553 290.111C798.553 307 798.553 323.42 798.553 340.309C798.553 344.531 797.612 345 793.378 345C791.025 345 788.673 345 786.791 345C783.498 345 782.557 344.062 782.557 340.778C782.557 340.309 782.557 339.84 782.557 338.901C782.557 288.704 782.557 238.037 782.557 187.839C782.557 185.963 782.557 184.086 783.027 182.21C783.498 178.926 785.38 176.58 788.202 175.173C794.319 171.889 800.905 170.012 807.492 168.605C818.783 166.259 830.075 165.79 841.366 166.259C848.894 166.728 855.951 168.136 863.008 171.889C873.829 177.519 880.415 186.901 882.768 198.63C883.708 203.79 884.179 208.951 884.179 214.111C884.179 226.309 884.179 238.037 884.179 250.235C884.179 258.21 882.768 265.716 879.474 272.753C874.299 284.481 864.419 291.049 852.187 293.864C836.661 297.617 821.136 295.741 806.08 290.58C803.258 289.642 800.905 288.704 798.553 287.765ZM798.553 231.469C798.553 243.667 798.553 255.864 798.553 268.062C798.553 273.222 798.553 273.222 803.258 275.099C815.96 280.259 829.134 283.074 843.248 280.728C856.421 278.852 864.419 271.346 867.242 258.21C867.712 256.333 868.183 253.988 868.183 252.111C868.183 237.568 868.183 223.025 867.712 208.481C867.242 194.877 858.773 185.025 844.659 182.21C830.545 179.395 816.431 181.272 802.787 185.963C799.964 186.901 799.023 188.778 799.023 191.593C798.553 205.198 798.553 218.333 798.553 231.469Z" fill="#3B82F6"/>
<path d="M929.345 287.765C929.345 288.704 929.345 289.173 929.345 290.111C929.345 307 929.345 323.42 929.345 340.309C929.345 344.531 928.404 345 924.17 345C921.818 345 919.465 345 917.113 345C914.29 345 913.349 344.062 912.879 340.778C912.879 340.309 912.879 339.37 912.879 338.901C912.879 288.704 912.879 238.037 912.879 187.839C912.879 185.963 912.879 184.086 913.349 182.21C913.82 178.926 915.701 176.58 918.524 175.173C924.64 171.889 931.227 170.012 937.814 168.605C949.105 166.259 960.396 165.79 971.688 166.259C979.215 166.728 986.272 168.136 993.329 171.889C1004.15 177.519 1010.74 186.901 1013.09 198.63C1014.03 203.79 1014.5 208.951 1014.5 214.111C1014.5 226.309 1014.5 238.037 1014.5 250.235C1014.5 258.21 1013.09 265.716 1009.8 272.753C1004.62 284.481 994.741 291.049 982.509 293.864C966.983 297.617 951.457 295.741 936.402 290.58C934.05 289.642 931.698 288.704 929.345 287.765ZM998.505 212.235C998.505 206.605 997.093 201.444 994.741 196.284C990.036 186.901 981.568 182.679 971.688 181.741C958.985 180.333 946.753 181.741 934.991 185.963C930.286 187.37 929.816 188.309 929.816 193.469C929.816 218.802 929.816 243.667 929.816 269C929.816 273.691 929.816 273.691 934.52 275.568C948.164 280.728 961.808 284.012 976.392 280.728C985.331 278.852 992.389 274.63 996.152 266.185C997.564 263.37 998.505 260.556 998.975 257.272C999.446 254.457 998.505 218.333 998.505 212.235Z" fill="#3B82F6"/>
<path d="M736.921 224.901C736.921 218.333 736.921 212.234 735.98 206.136C735.51 202.383 734.569 198.63 733.157 194.876C730.334 188.778 725.63 185.025 719.513 183.148C708.693 179.864 697.872 180.333 687.051 184.086C680.464 186.432 675.289 190.654 671.525 196.753C671.055 197.691 670.584 198.63 670.114 199.099C668.702 200.975 667.761 201.444 665.879 200.506C663.527 199.568 661.175 198.63 659.293 197.691C656 196.284 655.529 194.876 657.411 191.593C660.704 185.494 664.939 180.333 671.055 176.111C678.112 170.951 686.11 168.605 694.578 167.197C704.929 165.79 715.279 165.79 725.159 168.605C740.685 172.827 749.624 183.148 752.447 198.63C753.388 203.79 753.858 209.42 753.858 214.58C753.858 234.284 753.858 254.457 753.858 274.16C753.858 276.506 753.858 278.852 753.388 281.197C752.917 284.012 751.035 286.358 748.683 287.765C743.508 290.58 737.862 292.457 731.746 293.395C717.632 296.21 703.517 296.21 689.403 294.802C683.287 294.333 677.641 292.926 671.996 290.58C662.586 286.827 656.94 279.79 655.059 269.469C653.647 261.963 653.647 253.988 655.059 246.481C657.411 235.222 664.939 228.654 675.289 225.37C681.876 223.494 688.462 222.555 695.519 222.086C706.34 221.148 716.691 221.617 727.511 223.025C730.334 223.494 733.157 223.963 736.921 224.901ZM736.451 255.864C736.451 250.234 736.451 245.074 736.451 239.444C736.451 237.568 735.98 237.099 734.098 237.099C727.041 236.63 720.454 235.691 713.397 235.691C703.517 235.222 693.637 234.753 684.228 237.099C677.171 238.975 671.525 242.728 669.173 250.234C667.761 255.864 667.761 261.494 669.173 267.123C670.584 273.222 674.348 276.975 679.523 279.321C683.757 281.197 688.462 282.136 692.696 282.136C701.165 283.074 709.633 283.074 718.102 281.667C722.807 281.197 727.512 279.79 731.746 278.383C734.098 277.914 735.51 276.037 735.51 273.691C736.451 268.062 736.451 261.963 736.451 255.864Z" fill="#3B82F6"/>
<path d="M1043.2 179.864C1043.2 180.802 1043.2 181.741 1043.2 182.679C1043.2 217.864 1043.2 253.519 1043.2 288.704C1043.2 289.642 1043.2 290.111 1043.2 291.049C1043.2 292.457 1044.14 293.395 1045.55 293.395C1047.43 293.395 1049.32 293.395 1051.2 293.395C1052.61 293.395 1053.55 292.457 1053.55 291.049C1053.55 290.111 1053.55 289.642 1053.55 288.704C1053.55 253.519 1053.55 217.864 1053.55 182.679C1053.55 181.741 1053.55 181.272 1053.55 180.333C1054.49 180.333 1089.31 180.333 1091.66 180.333C1093.54 180.333 1094.01 179.395 1094.01 177.988C1094.01 176.58 1094.01 175.173 1094.01 173.765C1094.01 172.358 1093.07 171.42 1091.66 171.42C1090.72 171.42 1090.25 171.42 1089.31 171.42C1078.01 171.42 1067.19 171.42 1055.9 171.42C1054.96 171.42 1054.49 171.42 1053.55 171.42C1053.55 163.444 1053.55 155.469 1054.96 147.963C1055.9 141.864 1058.25 136.704 1063.43 132.951C1068.61 129.198 1074.25 127.79 1080.37 127.321C1084.13 126.852 1087.42 126.852 1091.19 126.852C1093.54 126.852 1094.01 125.914 1094.01 123.568C1094.01 122.63 1094.01 121.691 1094.01 120.753C1094.01 117.938 1093.54 117 1090.25 117C1085.07 117 1080.37 117.469 1075.66 117.938C1069.55 118.877 1063.9 120.284 1058.73 123.568C1050.26 129.198 1046.49 137.642 1044.61 147.025C1043.2 154.531 1043.67 161.568 1043.2 169.074C1043.2 170.012 1043.2 170.482 1043.2 171.42V179.864Z" fill="#3B82F6"/>
<path d="M1335.19 246.951C1335.19 253.988 1335.66 261.025 1337.54 268.062C1339.89 278.383 1346.01 285.889 1355.89 289.173C1364.83 292.457 1374.24 292.457 1383.65 292.457C1385.06 292.457 1386 291.988 1386 290.58C1386 289.173 1386 287.296 1386 285.889C1386 283.543 1385.53 283.074 1382.71 282.605C1377.06 282.136 1370.94 282.136 1365.3 281.198C1355.89 279.79 1349.77 274.161 1347.42 264.778C1346.48 260.556 1345.54 256.333 1345.54 252.111C1345.07 228.185 1345.54 204.259 1345.07 180.803C1345.07 180.333 1345.07 179.864 1345.07 179.395C1349.77 179.395 1374.71 179.395 1383.18 179.395C1385.53 179.395 1386 178.926 1386 176.58C1386 175.173 1386 173.765 1386 172.827C1386 171.42 1385.53 170.482 1383.65 170.482C1382.71 170.482 1382.24 170.482 1381.3 170.482C1370 170.482 1345.54 170.482 1344.6 170.482C1344.6 169.543 1344.6 169.074 1344.6 168.136C1344.6 161.099 1344.6 154.062 1344.6 147.025C1344.6 146.086 1344.6 145.148 1344.6 144.21C1344.6 142.333 1344.13 141.395 1341.78 141.395C1340.36 141.395 1340.36 141.395 1338.48 141.395C1335.66 141.395 1335.19 141.864 1335.19 144.679C1335.19 152.654 1335.19 225.37 1335.19 246.951Z" fill="#3B82F6"/>
<path d="M1181.52 225.839C1181.52 219.741 1181.99 214.111 1181.52 208.012C1181.05 203.321 1180.58 199.099 1179.17 194.877C1176.34 185.494 1170.23 179.864 1160.82 177.518C1149.53 174.235 1138.23 174.704 1126.94 178.457C1118.47 181.272 1111.89 186.901 1107.65 194.407C1105.77 198.16 1105.77 198.16 1101.54 196.284C1100.6 195.815 1099.66 195.346 1098.71 194.877C1096.83 193.938 1096.83 193 1097.3 191.593C1102.01 182.21 1109.07 175.173 1118.95 170.481C1127.41 166.728 1136.35 165.321 1145.76 165.321C1152.82 165.321 1159.41 166.259 1165.99 168.136C1179.64 172.358 1187.63 182.21 1190.46 195.815C1191.4 200.506 1191.87 205.667 1191.87 210.827C1191.87 232.877 1191.87 255.395 1191.87 277.444C1191.87 282.605 1189.52 286.358 1184.81 288.704C1176.81 291.988 1168.82 293.864 1160.35 294.802C1155.17 295.272 1151.88 295.741 1147.64 295.741C1143.41 295.741 1138.71 295.741 1134.47 295.272C1126.47 294.802 1118.95 293.395 1111.42 290.58C1102.01 286.358 1096.36 279.321 1094.95 269C1094.01 261.963 1094.01 254.926 1094.95 248.358C1097.3 236.63 1104.83 229.593 1116.12 225.839C1122.24 223.963 1128.83 223.494 1135.41 223.025C1145.76 222.556 1154.7 222.556 1164.58 223.494C1170.7 224.432 1177.28 225.37 1181.52 225.839ZM1181.52 234.753C1177.75 234.284 1174.46 233.815 1171.17 233.346C1159.41 231.938 1147.64 231 1135.41 231.938C1130.24 232.407 1124.59 233.346 1119.42 234.753C1111.42 237.099 1106.24 242.259 1104.83 250.704C1103.42 256.802 1103.42 262.901 1104.83 268.531C1106.24 275.568 1110.48 280.728 1117.53 283.543C1120.83 284.951 1124.59 285.889 1128.35 286.358C1136.82 287.765 1145.29 287.765 1153.76 287.296C1161.29 286.827 1168.34 285.42 1174.93 283.074C1181.05 280.728 1181.52 278.852 1181.52 273.222C1181.52 261.025 1181.52 235.691 1181.52 234.753Z" fill="#3B82F6"/>
<path d="M1310.92 256.221C1309.51 244.868 1303.85 236.826 1293.48 232.568C1283.58 228.31 1273.21 227.364 1262.84 226.418C1256.24 225.472 1250.11 224.999 1243.98 223.58C1238.32 222.634 1233.61 220.741 1229.84 216.484C1223.24 208.915 1223.24 199.926 1226.06 190.938C1228.42 183.842 1234.55 179.112 1242.09 177.219C1252.94 174.381 1264.72 174.381 1276.03 176.746C1284.05 178.638 1290.65 182.896 1295.36 189.992C1296.78 191.884 1297.72 194.25 1298.66 196.142C1299.13 197.088 1300.08 198.507 1301.96 198.034C1303.85 197.561 1305.26 197.088 1307.15 196.142C1308.56 195.196 1309.03 194.25 1308.56 192.83C1304.79 182.896 1298.66 175.8 1288.76 171.069C1282.63 168.231 1276.51 167.285 1270.38 166.339C1256.71 164.446 1246.34 166.812 1242.09 167.285C1235.96 168.704 1230.31 171.069 1225.12 174.854C1217.11 180.531 1213.81 189.992 1213.34 199.926C1213.34 206.076 1214.28 211.753 1216.64 217.43C1220.41 225.945 1227.95 230.203 1236.44 232.568C1245.86 235.406 1255.76 235.879 1265.66 236.826C1272.73 237.772 1279.33 238.718 1285.93 241.083C1291.59 242.975 1295.83 246.287 1298.19 251.964C1299.13 253.856 1299.61 255.748 1299.61 257.64C1300.08 262.371 1299.61 267.102 1298.19 271.832C1295.83 278.928 1289.71 283.659 1282.16 285.551C1271.32 288.39 1259.54 288.39 1248.22 286.024C1240.21 284.132 1233.61 279.875 1228.89 272.779C1227.48 270.886 1226.54 268.521 1225.59 266.629C1225.12 265.683 1224.18 264.263 1222.29 264.736C1220.41 265.21 1218.99 265.683 1217.11 266.629C1215.69 267.575 1215.22 268.521 1215.69 269.94C1219.46 279.875 1225.59 286.971 1235.49 291.701C1241.62 294.54 1247.75 295.486 1253.88 296.432C1267.55 298.324 1277.92 295.959 1282.16 295.013C1288.29 293.594 1294.42 291.228 1299.61 287.444C1307.62 281.767 1310.92 272.779 1311.39 262.844C1311.39 260.479 1310.92 257.64 1310.92 256.221Z" fill="#3B82F6"/>
<g filter="url(#filter0_dii_1864_62)">
<path d="M337.512 296.575L361.114 253.138L400.45 182.352C406.744 172.7 416.185 166.265 428.773 166.265H537.341C548.355 166.265 559.37 159.83 565.664 150.177L605 81H507.446H458.668H379.995C368.981 81 357.967 87.4351 351.673 97.0876L312.337 166.265L189.607 381.839H268.28C279.294 381.839 290.308 375.404 296.602 365.751L337.512 296.575Z" fill="url(#paint0_linear_1864_62)"/>
</g>
<g filter="url(#filter1_dii_1864_62)">
<path d="M453.695 211C442.675 211 431.655 217.398 425.357 226.996L386 297.377H464.715C475.735 297.377 486.755 290.978 493.052 281.381L532.41 212.6V211H453.695Z" fill="url(#paint1_linear_1864_62)"/>
</g>
<g filter="url(#filter2_dii_1864_62)">
<path d="M278.39 102.076L119.386 382H144.575C158.743 382 171.338 374.002 179.209 361.206L338.213 81.2813H313.024C298.856 81.2813 286.261 89.2792 278.39 102.076Z" fill="url(#paint2_linear_1864_62)"/>
</g>
<g filter="url(#filter3_dii_1864_62)">
<path d="M223.004 102.076L64 382H73.4458C87.6144 382 100.209 374.002 108.08 361.206L267.084 81.2813H257.638C243.47 81.2813 229.301 89.2792 223.004 102.076Z" fill="url(#paint3_linear_1864_62)"/>
</g>
</g>
<defs>
<filter id="filter0_dii_1864_62" x="93.6069" y="33" width="607.393" height="492.839" filterUnits="userSpaceOnUse" color-interpolation-filters="sRGB">
<feFlood flood-opacity="0" result="BackgroundImageFix"/>
<feColorMatrix in="SourceAlpha" type="matrix" values="0 0 0 0 0 0 0 0 0 0 0 0 0 0 0 0 0 0 127 0" result="hardAlpha"/>
<feOffset dy="48"/>
<feGaussianBlur stdDeviation="48"/>
<feColorMatrix type="matrix" values="0 0 0 0 0.0415686 0 0 0 0 0.102745 0 0 0 0 0.183529 0 0 0 0.1245 0"/>
<feBlend mode="normal" in2="BackgroundImageFix" result="effect1_dropShadow_1864_62"/>
<feBlend mode="normal" in="SourceGraphic" in2="effect1_dropShadow_1864_62" result="shape"/>
<feColorMatrix in="SourceAlpha" type="matrix" values="0 0 0 0 0 0 0 0 0 0 0 0 0 0 0 0 0 0 127 0" result="hardAlpha"/>
<feOffset dy="11.4133"/>
<feGaussianBlur stdDeviation="5.70667"/>
<feComposite in2="hardAlpha" operator="arithmetic" k2="-1" k3="1"/>
<feColorMatrix type="matrix" values="0 0 0 0 0.22738 0 0 0 0 0.562016 0 0 0 0 1 0 0 0 1 0"/>
<feBlend mode="normal" in2="shape" result="effect2_innerShadow_1864_62"/>
<feColorMatrix in="SourceAlpha" type="matrix" values="0 0 0 0 0 0 0 0 0 0 0 0 0 0 0 0 0 0 127 0" result="hardAlpha"/>
<feOffset dy="-11.4133"/>
<feGaussianBlur stdDeviation="5.70667"/>
<feComposite in2="hardAlpha" operator="arithmetic" k2="-1" k3="1"/>
<feColorMatrix type="matrix" values="0 0 0 0 0.183422 0 0 0 0 0.453363 0 0 0 0 0.809824 0 0 0 1 0"/>
<feBlend mode="normal" in2="effect2_innerShadow_1864_62" result="effect3_innerShadow_1864_62"/>
</filter>
<filter id="filter1_dii_1864_62" x="354.777" y="195.389" width="208.855" height="148.822" filterUnits="userSpaceOnUse" color-interpolation-filters="sRGB">
<feFlood flood-opacity="0" result="BackgroundImageFix"/>
<feColorMatrix in="SourceAlpha" type="matrix" values="0 0 0 0 0 0 0 0 0 0 0 0 0 0 0 0 0 0 127 0" result="hardAlpha"/>
<feOffset dy="15.6113"/>
<feGaussianBlur stdDeviation="15.6113"/>
<feColorMatrix type="matrix" values="0 0 0 0 0.0415686 0 0 0 0 0.102745 0 0 0 0 0.183529 0 0 0 0.142 0"/>
<feBlend mode="normal" in2="BackgroundImageFix" result="effect1_dropShadow_1864_62"/>
<feBlend mode="normal" in="SourceGraphic" in2="effect1_dropShadow_1864_62" result="shape"/>
<feColorMatrix in="SourceAlpha" type="matrix" values="0 0 0 0 0 0 0 0 0 0 0 0 0 0 0 0 0 0 127 0" result="hardAlpha"/>
<feOffset dy="3.88547"/>
<feGaussianBlur stdDeviation="1.94274"/>
<feComposite in2="hardAlpha" operator="arithmetic" k2="-1" k3="1"/>
<feColorMatrix type="matrix" values="0 0 0 0 0.229459 0 0 0 0 0.567153 0 0 0 0 1 0 0 0 1 0"/>
<feBlend mode="normal" in2="shape" result="effect2_innerShadow_1864_62"/>
<feColorMatrix in="SourceAlpha" type="matrix" values="0 0 0 0 0 0 0 0 0 0 0 0 0 0 0 0 0 0 127 0" result="hardAlpha"/>
<feOffset dy="-3.88547"/>
<feGaussianBlur stdDeviation="1.94274"/>
<feComposite in2="hardAlpha" operator="arithmetic" k2="-1" k3="1"/>
<feColorMatrix type="matrix" values="0 0 0 0 0.180824 0 0 0 0 0.446941 0 0 0 0 0.798353 0 0 0 1 0"/>
<feBlend mode="normal" in2="effect2_innerShadow_1864_62" result="effect3_innerShadow_1864_62"/>
</filter>
<filter id="filter2_dii_1864_62" x="49.9015" y="46.5391" width="357.796" height="439.688" filterUnits="userSpaceOnUse" color-interpolation-filters="sRGB">
<feFlood flood-opacity="0" result="BackgroundImageFix"/>
<feColorMatrix in="SourceAlpha" type="matrix" values="0 0 0 0 0 0 0 0 0 0 0 0 0 0 0 0 0 0 127 0" result="hardAlpha"/>
<feOffset dy="34.7423"/>
<feGaussianBlur stdDeviation="34.7423"/>
<feColorMatrix type="matrix" values="0 0 0 0 0.0415686 0 0 0 0 0.102745 0 0 0 0 0.183529 0 0 0 0.156 0"/>
<feBlend mode="normal" in2="BackgroundImageFix" result="effect1_dropShadow_1864_62"/>
<feBlend mode="normal" in="SourceGraphic" in2="effect1_dropShadow_1864_62" result="shape"/>
<feColorMatrix in="SourceAlpha" type="matrix" values="0 0 0 0 0 0 0 0 0 0 0 0 0 0 0 0 0 0 127 0" result="hardAlpha"/>
<feOffset dy="8.95578"/>
<feGaussianBlur stdDeviation="4.47789"/>
<feComposite in2="hardAlpha" operator="arithmetic" k2="-1" k3="1"/>
<feColorMatrix type="matrix" values="0 0 0 0 0.231122 0 0 0 0 0.571263 0 0 0 0 1 0 0 0 1 0"/>
<feBlend mode="normal" in2="shape" result="effect2_innerShadow_1864_62"/>
<feColorMatrix in="SourceAlpha" type="matrix" values="0 0 0 0 0 0 0 0 0 0 0 0 0 0 0 0 0 0 127 0" result="hardAlpha"/>
<feOffset dy="-8.95578"/>
<feGaussianBlur stdDeviation="4.47789"/>
<feComposite in2="hardAlpha" operator="arithmetic" k2="-1" k3="1"/>
<feColorMatrix type="matrix" values="0 0 0 0 0.178745 0 0 0 0 0.441804 0 0 0 0 0.789176 0 0 0 1 0"/>
<feBlend mode="normal" in2="effect2_innerShadow_1864_62" result="effect3_innerShadow_1864_62"/>
</filter>
<filter id="filter3_dii_1864_62" x="-3.36218" y="47.6003" width="337.808" height="435.443" filterUnits="userSpaceOnUse" color-interpolation-filters="sRGB">
<feFlood flood-opacity="0" result="BackgroundImageFix"/>
<feColorMatrix in="SourceAlpha" type="matrix" values="0 0 0 0 0 0 0 0 0 0 0 0 0 0 0 0 0 0 127 0" result="hardAlpha"/>
<feOffset dy="33.6811"/>
<feGaussianBlur stdDeviation="33.6811"/>
<feColorMatrix type="matrix" values="0 0 0 0 0.0415686 0 0 0 0 0.102745 0 0 0 0 0.183529 0 0 0 0.1385 0"/>
<feBlend mode="normal" in2="BackgroundImageFix" result="effect1_dropShadow_1864_62"/>
<feBlend mode="normal" in="SourceGraphic" in2="effect1_dropShadow_1864_62" result="shape"/>
<feColorMatrix in="SourceAlpha" type="matrix" values="0 0 0 0 0 0 0 0 0 0 0 0 0 0 0 0 0 0 127 0" result="hardAlpha"/>
<feOffset dy="8.308"/>
<feGaussianBlur stdDeviation="4.154"/>
<feComposite in2="hardAlpha" operator="arithmetic" k2="-1" k3="1"/>
<feColorMatrix type="matrix" values="0 0 0 0 0.229043 0 0 0 0 0.566126 0 0 0 0 1 0 0 0 1 0"/>
<feBlend mode="normal" in2="shape" result="effect2_innerShadow_1864_62"/>
<feColorMatrix in="SourceAlpha" type="matrix" values="0 0 0 0 0 0 0 0 0 0 0 0 0 0 0 0 0 0 127 0" result="hardAlpha"/>
<feOffset dy="-8.308"/>
<feGaussianBlur stdDeviation="4.154"/>
<feComposite in2="hardAlpha" operator="arithmetic" k2="-1" k3="1"/>
<feColorMatrix type="matrix" values="0 0 0 0 0.181343 0 0 0 0 0.448226 0 0 0 0 0.800647 0 0 0 1 0"/>
<feBlend mode="normal" in2="effect2_innerShadow_1864_62" result="effect3_innerShadow_1864_62"/>
</filter>
<linearGradient id="paint0_linear_1864_62" x1="397.303" y1="81" x2="397.303" y2="381.839" gradientUnits="userSpaceOnUse">
<stop stop-color="#398CFA"/>
<stop offset="1" stop-color="#3077D4"/>
</linearGradient>
<linearGradient id="paint1_linear_1864_62" x1="459.205" y1="211" x2="459.205" y2="297.377" gradientUnits="userSpaceOnUse">
<stop stop-color="#398DFC"/>
<stop offset="1" stop-color="#2F75D2"/>
</linearGradient>
<linearGradient id="paint2_linear_1864_62" x1="228.8" y1="81.2813" x2="228.8" y2="382" gradientUnits="userSpaceOnUse">
<stop stop-color="#398EFE"/>
<stop offset="1" stop-color="#2F74D0"/>
</linearGradient>
<linearGradient id="paint3_linear_1864_62" x1="165.542" y1="81.2813" x2="165.542" y2="382" gradientUnits="userSpaceOnUse">
<stop stop-color="#398DFC"/>
<stop offset="1" stop-color="#3076D2"/>
</linearGradient>
<clipPath id="clip0_1864_62">
<rect width="1481" height="463" fill="white"/>
</clipPath>
</defs>
</svg>
