<svg width="1024" height="1024" viewBox="0 0 1024 1024" fill="none" xmlns="http://www.w3.org/2000/svg">
<g clip-path="url(#clip0_1798_73)">
<rect width="1024" height="1024" fill="url(#paint0_linear_1798_73)"/>
<rect width="1024" height="1024" fill="url(#paint1_linear_1798_73)"/>
<path fill-rule="evenodd" clip-rule="evenodd" d="M1.65229 1083.21L-31.182 962.526C-64.6753 842.98 -130.344 601.623 -17.0376 465.908C96.2686 330.193 389.868 297.855 528.836 177.07C667.804 56.2851 653.46 -155.212 645.628 -259.828L638.456 -365.577L1562.29 171.902L1518.14 247.791C1474.64 322.547 1386.34 474.325 1298.7 624.97C1211.05 775.614 1122.75 927.392 1035.1 1078.04C947.459 1228.68 859.156 1380.46 815.663 1455.22L771.512 1531.1L1.65229 1083.21Z" fill="url(#paint2_linear_1798_73)"/>
<path opacity="0.3" fill-rule="evenodd" clip-rule="evenodd" d="M-772 437.481L-608.985 554.233C-445.969 670.986 -119.939 904.491 52.6836 866.6C225.306 828.709 244.519 519.423 391.574 436.299C538.628 353.176 813.522 496.216 935.008 367.86C1056.49 239.504 1024.57 -160.248 1008.61 -360.124L992.649 -560L1682.99 661.282L1609.46 702.843C1535.93 744.405 1388.88 827.528 1241.83 910.652C1094.77 993.775 947.717 1076.9 800.663 1160.02C653.609 1243.15 506.555 1326.27 359.501 1409.39C212.446 1492.52 65.3923 1575.64 -8.1347 1617.2L-81.6617 1658.76L-772 437.481Z" fill="url(#paint3_linear_1798_73)"/>
<path opacity="0.2" fill-rule="evenodd" clip-rule="evenodd" d="M130.121 1488.68L162.902 1428.32C195.684 1367.96 261.247 1247.24 326.811 1126.52C392.374 1005.8 457.937 885.083 547.153 809.697C636.369 734.312 749.238 704.261 862.107 674.21C974.976 644.159 1087.84 614.108 1144.28 599.083L1200.71 584.057L1342.63 856.063L1292.11 882.422C1241.59 908.781 1140.54 961.499 1039.5 1014.22C938.46 1066.93 837.418 1119.65 736.375 1172.37C635.333 1225.09 534.29 1277.81 433.248 1330.53C332.206 1383.24 231.163 1435.96 180.642 1462.32L130.121 1488.68Z" fill="url(#paint4_linear_1798_73)"/>
<g filter="url(#filter0_dii_1798_73)">
<path d="M673.849 409.415C658.938 409.415 644.028 417.96 635.507 430.778L582.255 524.775H688.76C703.671 524.775 718.581 516.23 727.102 503.412L780.354 411.551V409.415H673.849Z" fill="url(#paint5_linear_1798_73)"/>
</g>
<g filter="url(#filter1_dii_1798_73)">
<path d="M516.075 523.91L548.01 465.899L601.234 371.361C609.75 358.469 622.523 349.875 639.555 349.875H786.454C801.357 349.875 816.259 341.281 824.775 328.389L877.999 236H746.003H680.005H573.557C558.654 236 543.752 244.594 535.236 257.486L482.012 349.875L315.952 637.785H422.4C437.303 637.785 452.206 629.191 460.722 616.299L516.075 523.91Z" fill="url(#paint6_linear_1798_73)"/>
</g>
<g opacity="0.9" filter="url(#filter2_dii_1798_73)">
<path d="M436.08 264.147L220.94 638H255.022C274.193 638 291.234 627.318 301.884 610.228L517.024 236.375H482.943C463.772 236.375 446.731 247.057 436.08 264.147Z" fill="url(#paint7_linear_1798_73)"/>
</g>
<g opacity="0.8" filter="url(#filter3_dii_1798_73)">
<path d="M361.14 263.772L146 637.625H158.781C177.951 637.625 194.992 626.943 205.643 609.853L420.783 236H408.002C388.831 236 369.66 246.682 361.14 263.772Z" fill="url(#paint8_linear_1798_73)"/>
</g>
<path d="M264.931 775.8C262.465 775.8 259.765 775.733 256.831 775.6C253.898 775.467 251.031 775.3 248.231 775.1C245.498 774.9 242.998 774.667 240.731 774.4V767.1C243.131 767.3 245.631 767.5 248.231 767.7C250.898 767.9 253.465 768.067 255.931 768.2C258.465 768.333 260.598 768.4 262.331 768.4C265.865 768.4 268.698 768.267 270.831 768C272.965 767.667 274.765 767.067 276.231 766.2C277.231 765.6 277.965 764.8 278.431 763.8C278.898 762.8 279.165 761.633 279.231 760.3C279.365 758.967 279.431 757.533 279.431 756C279.431 753.733 279.365 751.9 279.231 750.5C279.098 749.1 278.731 748.033 278.131 747.3C277.598 746.5 276.698 745.933 275.431 745.6C274.165 745.2 272.465 744.9 270.331 744.7L253.231 742.8C250.031 742.4 247.465 741.733 245.531 740.8C243.598 739.8 242.131 738.567 241.131 737.1C240.198 735.567 239.565 733.767 239.231 731.7C238.898 729.567 238.731 727.2 238.731 724.6C238.731 720.4 239.265 717.033 240.331 714.5C241.465 711.967 243.098 710.033 245.231 708.7C247.365 707.367 249.931 706.5 252.931 706.1C255.998 705.633 259.498 705.4 263.431 705.4C265.965 705.4 268.565 705.467 271.231 705.6C273.898 705.733 276.398 705.933 278.731 706.2C281.131 706.4 283.098 706.667 284.631 707V714.1C282.898 713.833 280.898 713.6 278.631 713.4C276.365 713.2 274.031 713.067 271.631 713C269.298 712.867 267.065 712.8 264.931 712.8C261.265 712.8 258.298 712.967 256.031 713.3C253.765 713.633 251.965 714.233 250.631 715.1C249.165 715.967 248.231 717.2 247.831 718.8C247.498 720.333 247.331 722.2 247.331 724.4C247.331 727 247.498 729.033 247.831 730.5C248.231 731.9 249.031 732.9 250.231 733.5C251.498 734.033 253.365 734.433 255.831 734.7L272.531 736.6C274.931 736.8 277.031 737.133 278.831 737.6C280.698 738 282.298 738.7 283.631 739.7C284.965 740.7 285.965 742.133 286.631 744C287.031 744.933 287.331 745.967 287.531 747.1C287.731 748.233 287.865 749.5 287.931 750.9C288.065 752.233 288.131 753.733 288.131 755.4C288.131 759.2 287.765 762.367 287.031 764.9C286.298 767.367 285.265 769.333 283.931 770.8C282.598 772.267 280.965 773.367 279.031 774.1C277.098 774.833 274.931 775.3 272.531 775.5C270.198 775.7 267.665 775.8 264.931 775.8Z" fill="white"/>
<path d="M359.524 775V713.8H337.824V706.2H389.924V713.8H368.124V775H359.524Z" fill="white"/>
<path d="M468.43 775.8C463.696 775.8 459.73 775.533 456.53 775C453.396 774.4 450.863 773.433 448.93 772.1C446.996 770.767 445.53 768.933 444.53 766.6C443.53 764.2 442.863 761.233 442.53 757.7C442.196 754.167 442.03 749.9 442.03 744.9V706.2H450.63V748.3C450.63 752.5 450.796 755.9 451.13 758.5C451.463 761.1 452.163 763.133 453.23 764.6C454.363 766.067 456.13 767.067 458.53 767.6C460.93 768.133 464.23 768.4 468.43 768.4C472.63 768.4 475.896 768.133 478.23 767.6C480.63 767.067 482.363 766.067 483.43 764.6C484.563 763.133 485.263 761.1 485.53 758.5C485.796 755.9 485.93 752.5 485.93 748.3V706.2H494.53V744.9C494.53 749.9 494.363 754.167 494.03 757.7C493.763 761.233 493.13 764.2 492.13 766.6C491.196 768.933 489.763 770.767 487.83 772.1C485.896 773.433 483.33 774.4 480.13 775C476.996 775.533 473.096 775.8 468.43 775.8Z" fill="white"/>
<path d="M553.73 775V706.2H575.53C581.197 706.2 585.83 706.467 589.43 707C593.03 707.533 595.864 708.5 597.93 709.9C600.064 711.3 601.63 713.3 602.63 715.9C603.63 718.5 604.264 721.8 604.53 725.8C604.797 729.8 604.93 734.733 604.93 740.6C604.93 746.467 604.797 751.4 604.53 755.4C604.264 759.4 603.63 762.7 602.63 765.3C601.63 767.9 600.064 769.9 597.93 771.3C595.864 772.7 593.03 773.667 589.43 774.2C585.83 774.733 581.197 775 575.53 775H553.73ZM562.33 767.6H574.13C578.33 767.6 581.797 767.5 584.53 767.3C587.264 767.1 589.43 766.6 591.03 765.8C592.63 764.933 593.797 763.567 594.53 761.7C595.264 759.767 595.73 757.1 595.93 753.7C596.197 750.3 596.33 745.933 596.33 740.6C596.33 735.267 596.197 730.933 595.93 727.6C595.73 724.2 595.23 721.533 594.43 719.6C593.697 717.667 592.53 716.3 590.93 715.5C589.33 714.633 587.164 714.1 584.43 713.9C581.764 713.7 578.33 713.6 574.13 713.6H562.33V767.6Z" fill="white"/>
<path d="M662.676 775V706.2H671.276V775H662.676Z" fill="white"/>
<path d="M757.089 775.8C751.756 775.8 747.322 775.533 743.789 775C740.322 774.4 737.556 773.367 735.489 771.9C733.489 770.433 732.022 768.4 731.089 765.8C730.156 763.133 729.556 759.767 729.289 755.7C729.022 751.567 728.889 746.533 728.889 740.6C728.889 734.667 729.022 729.667 729.289 725.6C729.556 721.467 730.156 718.1 731.089 715.5C732.022 712.833 733.489 710.767 735.489 709.3C737.556 707.833 740.322 706.833 743.789 706.3C747.322 705.7 751.756 705.4 757.089 705.4C762.422 705.4 766.822 705.7 770.289 706.3C773.822 706.833 776.589 707.833 778.589 709.3C780.656 710.767 782.156 712.833 783.089 715.5C784.022 718.1 784.622 721.467 784.889 725.6C785.156 729.667 785.289 734.667 785.289 740.6C785.289 746.533 785.156 751.567 784.889 755.7C784.622 759.767 784.022 763.133 783.089 765.8C782.156 768.4 780.656 770.433 778.589 771.9C776.589 773.367 773.822 774.4 770.289 775C766.822 775.533 762.422 775.8 757.089 775.8ZM757.089 768.4C760.756 768.4 763.789 768.3 766.189 768.1C768.589 767.833 770.489 767.267 771.889 766.4C773.289 765.533 774.356 764.133 775.089 762.2C775.822 760.2 776.256 757.467 776.389 754C776.589 750.533 776.689 746.067 776.689 740.6C776.689 735.133 776.589 730.667 776.389 727.2C776.256 723.733 775.822 721.033 775.089 719.1C774.356 717.1 773.289 715.667 771.889 714.8C770.489 713.933 768.589 713.4 766.189 713.2C763.789 712.933 760.756 712.8 757.089 712.8C753.422 712.8 750.389 712.933 747.989 713.2C745.656 713.4 743.756 713.933 742.289 714.8C740.889 715.667 739.822 717.1 739.089 719.1C738.422 721.033 737.989 723.733 737.789 727.2C737.589 730.667 737.489 735.133 737.489 740.6C737.489 746.067 737.589 750.533 737.789 754C737.989 757.467 738.422 760.2 739.089 762.2C739.822 764.133 740.889 765.533 742.289 766.4C743.756 767.267 745.656 767.833 747.989 768.1C750.389 768.3 753.422 768.4 757.089 768.4Z" fill="white"/>
</g>
<defs>
<filter id="filter0_dii_1798_73" x="551.032" y="393.804" width="260.544" height="177.805" filterUnits="userSpaceOnUse" color-interpolation-filters="sRGB">
<feFlood flood-opacity="0" result="BackgroundImageFix"/>
<feColorMatrix in="SourceAlpha" type="matrix" values="0 0 0 0 0 0 0 0 0 0 0 0 0 0 0 0 0 0 127 0" result="hardAlpha"/>
<feOffset dy="15.6113"/>
<feGaussianBlur stdDeviation="15.6113"/>
<feColorMatrix type="matrix" values="0 0 0 0 0.2 0 0 0 0 0.2 0 0 0 0 0.2 0 0 0 0.142 0"/>
<feBlend mode="normal" in2="BackgroundImageFix" result="effect1_dropShadow_1798_73"/>
<feBlend mode="normal" in="SourceGraphic" in2="effect1_dropShadow_1798_73" result="shape"/>
<feColorMatrix in="SourceAlpha" type="matrix" values="0 0 0 0 0 0 0 0 0 0 0 0 0 0 0 0 0 0 127 0" result="hardAlpha"/>
<feOffset dy="3.88547"/>
<feGaussianBlur stdDeviation="1.94274"/>
<feComposite in2="hardAlpha" operator="arithmetic" k2="-1" k3="1"/>
<feColorMatrix type="matrix" values="0 0 0 0 1 0 0 0 0 1 0 0 0 0 1 0 0 0 1 0"/>
<feBlend mode="normal" in2="shape" result="effect2_innerShadow_1798_73"/>
<feColorMatrix in="SourceAlpha" type="matrix" values="0 0 0 0 0 0 0 0 0 0 0 0 0 0 0 0 0 0 127 0" result="hardAlpha"/>
<feOffset dy="-3.88547"/>
<feGaussianBlur stdDeviation="1.94274"/>
<feComposite in2="hardAlpha" operator="arithmetic" k2="-1" k3="1"/>
<feColorMatrix type="matrix" values="0 0 0 0 0.87 0 0 0 0 0.87 0 0 0 0 0.87 0 0 0 1 0"/>
<feBlend mode="normal" in2="effect2_innerShadow_1798_73" result="effect3_innerShadow_1798_73"/>
</filter>
<filter id="filter1_dii_1798_73" x="219.952" y="188" width="754.047" height="593.785" filterUnits="userSpaceOnUse" color-interpolation-filters="sRGB">
<feFlood flood-opacity="0" result="BackgroundImageFix"/>
<feColorMatrix in="SourceAlpha" type="matrix" values="0 0 0 0 0 0 0 0 0 0 0 0 0 0 0 0 0 0 127 0" result="hardAlpha"/>
<feOffset dy="48"/>
<feGaussianBlur stdDeviation="48"/>
<feColorMatrix type="matrix" values="0 0 0 0 0.2 0 0 0 0 0.2 0 0 0 0 0.2 0 0 0 0.156 0"/>
<feBlend mode="normal" in2="BackgroundImageFix" result="effect1_dropShadow_1798_73"/>
<feBlend mode="normal" in="SourceGraphic" in2="effect1_dropShadow_1798_73" result="shape"/>
<feColorMatrix in="SourceAlpha" type="matrix" values="0 0 0 0 0 0 0 0 0 0 0 0 0 0 0 0 0 0 127 0" result="hardAlpha"/>
<feOffset dy="12.3733"/>
<feGaussianBlur stdDeviation="6.18667"/>
<feComposite in2="hardAlpha" operator="arithmetic" k2="-1" k3="1"/>
<feColorMatrix type="matrix" values="0 0 0 0 1 0 0 0 0 1 0 0 0 0 1 0 0 0 1 0"/>
<feBlend mode="normal" in2="shape" result="effect2_innerShadow_1798_73"/>
<feColorMatrix in="SourceAlpha" type="matrix" values="0 0 0 0 0 0 0 0 0 0 0 0 0 0 0 0 0 0 127 0" result="hardAlpha"/>
<feOffset dy="-12.3733"/>
<feGaussianBlur stdDeviation="6.18667"/>
<feComposite in2="hardAlpha" operator="arithmetic" k2="-1" k3="1"/>
<feColorMatrix type="matrix" values="0 0 0 0 0.86 0 0 0 0 0.86 0 0 0 0 0.86 0 0 0 1 0"/>
<feBlend mode="normal" in2="effect2_innerShadow_1798_73" result="effect3_innerShadow_1798_73"/>
</filter>
<filter id="filter2_dii_1798_73" x="151.456" y="201.633" width="435.053" height="540.594" filterUnits="userSpaceOnUse" color-interpolation-filters="sRGB">
<feFlood flood-opacity="0" result="BackgroundImageFix"/>
<feColorMatrix in="SourceAlpha" type="matrix" values="0 0 0 0 0 0 0 0 0 0 0 0 0 0 0 0 0 0 127 0" result="hardAlpha"/>
<feOffset dy="34.7423"/>
<feGaussianBlur stdDeviation="34.7423"/>
<feColorMatrix type="matrix" values="0 0 0 0 0.2 0 0 0 0 0.2 0 0 0 0 0.2 0 0 0 0.149 0"/>
<feBlend mode="normal" in2="BackgroundImageFix" result="effect1_dropShadow_1798_73"/>
<feBlend mode="normal" in="SourceGraphic" in2="effect1_dropShadow_1798_73" result="shape"/>
<feColorMatrix in="SourceAlpha" type="matrix" values="0 0 0 0 0 0 0 0 0 0 0 0 0 0 0 0 0 0 127 0" result="hardAlpha"/>
<feOffset dy="8.80137"/>
<feGaussianBlur stdDeviation="4.40069"/>
<feComposite in2="hardAlpha" operator="arithmetic" k2="-1" k3="1"/>
<feColorMatrix type="matrix" values="0 0 0 0 1 0 0 0 0 1 0 0 0 0 1 0 0 0 1 0"/>
<feBlend mode="normal" in2="shape" result="effect2_innerShadow_1798_73"/>
<feColorMatrix in="SourceAlpha" type="matrix" values="0 0 0 0 0 0 0 0 0 0 0 0 0 0 0 0 0 0 127 0" result="hardAlpha"/>
<feOffset dy="-8.80137"/>
<feGaussianBlur stdDeviation="4.40069"/>
<feComposite in2="hardAlpha" operator="arithmetic" k2="-1" k3="1"/>
<feColorMatrix type="matrix" values="0 0 0 0 0.865 0 0 0 0 0.865 0 0 0 0 0.865 0 0 0 1 0"/>
<feBlend mode="normal" in2="effect2_innerShadow_1798_73" result="effect3_innerShadow_1798_73"/>
</filter>
<filter id="filter3_dii_1798_73" x="78.6378" y="202.319" width="409.507" height="536.349" filterUnits="userSpaceOnUse" color-interpolation-filters="sRGB">
<feFlood flood-opacity="0" result="BackgroundImageFix"/>
<feColorMatrix in="SourceAlpha" type="matrix" values="0 0 0 0 0 0 0 0 0 0 0 0 0 0 0 0 0 0 127 0" result="hardAlpha"/>
<feOffset dy="33.6811"/>
<feGaussianBlur stdDeviation="33.6811"/>
<feColorMatrix type="matrix" values="0 0 0 0 0.2 0 0 0 0 0.2 0 0 0 0 0.2 0 0 0 0.1525 0"/>
<feBlend mode="normal" in2="BackgroundImageFix" result="effect1_dropShadow_1798_73"/>
<feBlend mode="normal" in="SourceGraphic" in2="effect1_dropShadow_1798_73" result="shape"/>
<feColorMatrix in="SourceAlpha" type="matrix" values="0 0 0 0 0 0 0 0 0 0 0 0 0 0 0 0 0 0 127 0" result="hardAlpha"/>
<feOffset dy="8.60739"/>
<feGaussianBlur stdDeviation="4.3037"/>
<feComposite in2="hardAlpha" operator="arithmetic" k2="-1" k3="1"/>
<feColorMatrix type="matrix" values="0 0 0 0 1 0 0 0 0 1 0 0 0 0 1 0 0 0 1 0"/>
<feBlend mode="normal" in2="shape" result="effect2_innerShadow_1798_73"/>
<feColorMatrix in="SourceAlpha" type="matrix" values="0 0 0 0 0 0 0 0 0 0 0 0 0 0 0 0 0 0 127 0" result="hardAlpha"/>
<feOffset dy="-8.60739"/>
<feGaussianBlur stdDeviation="4.3037"/>
<feComposite in2="hardAlpha" operator="arithmetic" k2="-1" k3="1"/>
<feColorMatrix type="matrix" values="0 0 0 0 0.8625 0 0 0 0 0.8625 0 0 0 0 0.8625 0 0 0 1 0"/>
<feBlend mode="normal" in2="effect2_innerShadow_1798_73" result="effect3_innerShadow_1798_73"/>
</filter>
<linearGradient id="paint0_linear_1798_73" x1="-224.5" y1="646" x2="1024" y2="-1.86041e-05" gradientUnits="userSpaceOnUse">
<stop stop-color="#3283E3"/>
<stop offset="1" stop-color="#1DABFF"/>
</linearGradient>
<linearGradient id="paint1_linear_1798_73" x1="-224.5" y1="646" x2="1024" y2="-1.86041e-05" gradientUnits="userSpaceOnUse">
<stop stop-color="#3283E3"/>
<stop offset="1" stop-color="#1DABFF"/>
</linearGradient>
<linearGradient id="paint2_linear_1798_73" x1="-19" y1="900.5" x2="1020" y2="-5.50012" gradientUnits="userSpaceOnUse">
<stop stop-color="#2890FF"/>
<stop offset="1" stop-color="#1AB0FF"/>
</linearGradient>
<linearGradient id="paint3_linear_1798_73" x1="65.9873" y1="1028.5" x2="1059.49" y2="-19.9999" gradientUnits="userSpaceOnUse">
<stop stop-color="#1AB9FF"/>
<stop offset="1" stop-color="#1ADCEA"/>
</linearGradient>
<linearGradient id="paint4_linear_1798_73" x1="407" y1="1043.5" x2="1054.5" y2="671.5" gradientUnits="userSpaceOnUse">
<stop stop-color="#1AD1F5"/>
<stop offset="1" stop-color="#1AF3BB"/>
</linearGradient>
<linearGradient id="paint5_linear_1798_73" x1="681.305" y1="409.415" x2="681.305" y2="524.775" gradientUnits="userSpaceOnUse">
<stop stop-color="white"/>
<stop offset="1" stop-color="#E4E4E4"/>
</linearGradient>
<linearGradient id="paint6_linear_1798_73" x1="596.976" y1="236" x2="596.976" y2="637.785" gradientUnits="userSpaceOnUse">
<stop stop-color="white"/>
<stop offset="1" stop-color="#E2E2E2"/>
</linearGradient>
<linearGradient id="paint7_linear_1798_73" x1="368.982" y1="236.375" x2="368.982" y2="638" gradientUnits="userSpaceOnUse">
<stop stop-color="white"/>
<stop offset="1" stop-color="#E3E3E3"/>
</linearGradient>
<linearGradient id="paint8_linear_1798_73" x1="283.391" y1="236" x2="283.391" y2="637.625" gradientUnits="userSpaceOnUse">
<stop stop-color="white"/>
<stop offset="1" stop-color="#E3E3E3"/>
</linearGradient>
<clipPath id="clip0_1798_73">
<rect width="1024" height="1024" fill="white"/>
</clipPath>
</defs>
</svg>
